<?xml version="1.0" encoding="utf-8"?>
<!-- Generator: Adobe Illustrator 22.0.1, SVG Export Plug-In . SVG Version: 6.00 Build 0)  -->
<svg version="1.1" id="Capa_1" xmlns="http://www.w3.org/2000/svg" xmlns:xlink="http://www.w3.org/1999/xlink" x="0px" y="0px"
	 viewBox="0 0 512 512" style="enable-background:new 0 0 512 512;" xml:space="preserve">
<style type="text/css">
	.st0{fill:#E9E9E9;}
	.st1{fill:#FF6843;}
	.st2{fill:#FFE2A7;}
	.st3{opacity:0.25;fill:#C42A1E;enable-background:new    ;}
</style>
<path class="st0" d="M411.5,166.3v-51.8H48.6v285.1c0,14.3,11.6,25.9,25.9,25.9h349.9c21.4,0,38.9-17.5,38.9-38.9V166.3H411.5z
	 M385.6,399.6h-311V140.4h311V399.6z M100.5,192.2h259.2v25.9H100.5V192.2L100.5,192.2z M256,244.1h103.7V270H256V244.1z M256,295.9
	h103.7v25.9H256V295.9z M256,347.8h77.8v25.9H256V347.8z M100.5,244.1h129.6v129.6H100.5V244.1z"/>
<polygon class="st1" points="357.4,368.8 260.9,321.4 402.1,38.7 498.3,86.5 "/>
<polygon class="st2" points="357.4,369 290.4,432.7 251.9,469.3 255.2,415.2 260.9,321.3 "/>
<polygon class="st1" points="290.4,432.7 251.9,469.3 255.2,415.2 "/>
<polygon class="st3" points="498.3,86.5 357.5,368.8 290.4,432.7 251.9,469.3 251.9,469.1 321.5,359.8 469.4,72.2 "/>
</svg>
